<svg width="31" height="30" viewBox="0 0 31 30" fill="none" xmlns="http://www.w3.org/2000/svg">
<path d="M4.13647 25.25C3.63647 25.25 3.19897 25.0625 2.82397 24.6875C2.44897 24.3125 2.26147 23.875 2.26147 23.375V7.125C2.26147 6.625 2.44897 6.1875 2.82397 5.8125C3.19897 5.4375 3.63647 5.25 4.13647 5.25H25.3865C25.8865 5.25 26.324 5.4375 26.699 5.8125C27.074 6.1875 27.2615 6.625 27.2615 7.125V23.375C27.2615 23.875 27.074 24.3125 26.699 24.6875C26.324 25.0625 25.8865 25.25 25.3865 25.25H4.13647ZM14.7615 15.8125L4.13647 8.84375V23.375H25.3865V8.84375L14.7615 15.8125ZM14.7615 13.9375L25.2615 7.125H4.29272L14.7615 13.9375ZM4.13647 8.84375V7.125V8.84375V23.375V8.84375Z" fill="white"/>
</svg>
