<svg width="217" height="68" viewBox="0 0 217 68" fill="none" xmlns="http://www.w3.org/2000/svg">
<path d="M16.0774 3L198.088 3.0504C216.945 7.49124 221.445 54.6492 198.34 65L16.7643 64.0884C2.61884 60.9571 -5.07996 17.6716 16.0774 3V3Z" fill="white" stroke="white" stroke-width="4.45486"/>
<path d="M19.1041 7.0061L193.988 7.05057C212.107 10.9685 216.43 52.5733 194.229 61.7052L19.7642 60.9009C6.17258 58.1383 -1.22475 19.95 19.1041 7.0061V7.0061Z" fill="white" stroke="#70CBCB" stroke-width="4.10161"/>
<path d="M33.9237 22.9215L36.603 22.9192L36.6237 37.5686C36.6258 39.081 36.2712 40.4318 35.5598 41.6208C34.8557 42.8026 33.8595 43.7361 32.5713 44.4215C31.283 45.0996 29.771 45.4395 28.0353 45.441C26.2995 45.4425 24.7866 45.1053 23.4964 44.4295C22.2062 43.7464 21.2038 42.8146 20.4891 41.634C19.7816 40.4463 19.4268 39.0962 19.4247 37.5837L19.404 22.9343L22.0832 22.9319L22.1036 37.3653C22.1051 38.4456 22.3442 39.4069 22.8207 40.2491C23.2972 41.0842 23.9752 41.7426 24.8545 42.2244C25.7411 42.6989 26.8001 42.9357 28.0317 42.9346C29.2633 42.9335 30.3217 42.6949 31.2069 42.2188C32.0921 41.7355 32.7682 41.0759 33.2352 40.24C33.7093 39.3969 33.9456 38.4352 33.9441 37.3548L33.9237 22.9215ZM51.1286 32.7807L51.1319 35.1574L41.4521 35.166L41.4487 32.7892L51.1286 32.7807ZM68.0541 28.4228C67.9229 27.3282 67.3959 26.4788 66.4732 25.8746C65.5504 25.2705 64.4192 24.969 63.0796 24.9701C62.1001 24.971 61.2433 25.1302 60.5091 25.4477C59.7821 25.7653 59.2137 26.2015 58.804 26.7565C58.4014 27.3114 58.2007 27.9418 58.2017 28.6476C58.2025 29.2382 58.3437 29.7458 58.6252 30.1705C58.9138 30.588 59.2816 30.937 59.7286 31.2174C60.1755 31.4907 60.644 31.7172 61.134 31.8968C61.624 32.0692 62.0743 32.2093 62.485 32.317L64.733 32.92C65.3094 33.0707 65.9506 33.279 66.6568 33.5449C67.3702 33.8107 68.0514 34.1739 68.7002 34.6342C69.3563 35.0874 69.8973 35.6703 70.3232 36.383C70.7491 37.0956 70.9628 37.9705 70.9643 39.0076C70.966 40.2032 70.6542 41.2838 70.029 42.2495C69.411 43.2151 68.5046 43.9829 67.3098 44.553C66.1222 45.123 64.6786 45.4088 62.9788 45.4103C61.3943 45.4116 60.0219 45.1572 58.8617 44.6468C57.7086 44.1365 56.8001 43.4243 56.1362 42.5102C55.4795 41.596 55.1071 40.534 55.0189 39.3241L57.7846 39.3217C57.8578 40.1571 58.1397 40.8483 58.6302 41.3952C59.1279 41.9349 59.7551 42.3377 60.5117 42.6035C61.2755 42.8621 62.0967 42.9911 62.9754 42.9903C63.9981 42.9894 64.9162 42.8229 65.7296 42.4909C66.543 42.1517 67.1869 41.683 67.6614 41.0848C68.1359 40.4794 68.3726 39.7733 68.3714 38.9667C68.3704 38.2321 68.1643 37.6344 67.7531 37.1739C67.3419 36.7133 66.8012 36.3392 66.131 36.0517C65.4608 35.7642 64.7366 35.5128 63.9585 35.2974L61.2349 34.522C59.5057 34.0265 58.1362 33.3183 57.1266 32.3973C56.117 31.4763 55.6111 30.2704 55.609 28.7795C55.6073 27.5407 55.9407 26.4601 56.6092 25.5376C57.2849 24.6079 58.1913 23.8869 59.3286 23.3745C60.473 22.855 61.751 22.5946 63.1627 22.5933C64.5887 22.5921 65.8567 22.8466 66.9666 23.357C68.0764 23.8602 68.9561 24.5508 69.6055 25.4289C70.2622 26.307 70.6093 27.3043 70.6469 28.4206L68.0541 28.4228ZM93.1604 29.7836L90.4812 29.786C90.3216 29.0155 90.0434 28.3387 89.6464 27.7557C89.2567 27.1726 88.7806 26.6833 88.2183 26.2877C87.6632 25.8848 87.0469 25.5829 86.3696 25.3818C85.6923 25.1807 84.9864 25.0805 84.2518 25.0812C82.9121 25.0823 81.699 25.4219 80.6124 26.0999C79.5331 26.7778 78.6738 27.7761 78.0347 29.0947C77.4027 30.4133 77.0881 32.0304 77.0908 33.9462C77.0935 35.862 77.4127 37.4787 78.0483 38.7961C78.6912 40.1136 79.5533 41.1103 80.6346 41.7864C81.7231 42.4624 82.9371 42.7999 84.2768 42.7987C85.0114 42.7981 85.7171 42.6966 86.3938 42.4944C87.0705 42.2921 87.6859 41.9927 88.2399 41.596C88.8011 41.1922 89.2758 40.6985 89.6639 40.1147C90.0592 39.5238 90.3355 38.8465 90.4929 38.083L93.1721 38.0806C92.972 39.2115 92.6062 40.2238 92.0744 41.1173C91.5427 42.0109 90.8812 42.7713 90.0898 43.3986C89.2985 44.0187 88.4097 44.4912 87.4234 44.8162C86.4443 45.1411 85.3966 45.3041 84.2803 45.3051C82.3933 45.3068 80.7145 44.8473 79.244 43.9267C77.7734 43.0061 76.6156 41.6963 75.7705 39.9973C74.9255 38.2983 74.5013 36.2821 74.498 33.9485C74.4947 31.615 74.9132 29.598 75.7534 27.8975C76.5937 26.197 77.7478 24.8852 79.2158 23.962C80.6837 23.0389 82.3612 22.5764 84.2482 22.5748C85.3646 22.5738 86.4127 22.7349 87.3927 23.0582C88.3799 23.3814 89.27 23.856 90.0631 24.4819C90.8563 25.1006 91.5199 25.8562 92.0542 26.7488C92.5884 27.6342 92.9571 28.6458 93.1604 29.7836ZM116.164 33.9119C116.167 36.2454 115.749 38.2624 114.909 39.9629C114.068 41.6634 112.914 42.9752 111.446 43.8984C109.978 44.8215 108.301 45.284 106.414 45.2856C104.527 45.2873 102.848 44.8278 101.377 43.9072C99.9069 42.9866 98.749 41.6768 97.904 39.9778C97.0589 38.2788 96.6347 36.2626 96.6314 33.9291C96.6281 31.5955 97.0466 29.5785 97.8869 27.8781C98.7272 26.1776 99.8813 24.8657 101.349 23.9426C102.817 23.0194 104.495 22.557 106.382 22.5553C108.269 22.5536 109.947 23.0131 111.418 23.9337C112.889 24.8543 114.046 26.1641 114.891 27.8631C115.736 29.5621 116.161 31.5783 116.164 33.9119ZM113.571 33.9142C113.568 31.9984 113.246 30.3817 112.603 29.0643C111.967 27.7468 111.105 26.7501 110.017 26.074C108.935 25.398 107.725 25.0605 106.385 25.0617C105.046 25.0629 103.832 25.4024 102.746 26.0804C101.667 26.7584 100.807 27.7566 100.168 29.0752C99.5362 30.3938 99.2215 32.011 99.2243 33.9268C99.227 35.8426 99.5461 37.4592 100.182 38.7767C100.825 40.0941 101.687 41.0909 102.768 41.7669C103.857 42.443 105.071 42.7804 106.41 42.7792C107.75 42.7781 108.959 42.4385 110.039 41.7605C111.125 41.0826 111.985 40.0843 112.617 38.7657C113.256 37.4471 113.574 35.83 113.571 33.9142ZM139.337 33.8915C139.341 36.225 138.922 38.242 138.082 39.9425C137.242 41.643 136.087 42.9548 134.619 43.878C133.151 44.8012 131.474 45.2636 129.587 45.2652C127.7 45.2669 126.021 44.8074 124.551 43.8868C123.08 42.9662 121.922 41.6565 121.077 39.9575C120.232 38.2585 119.808 36.2422 119.805 33.9087C119.801 31.5751 120.22 29.5581 121.06 27.8577C121.9 26.1572 123.055 24.8454 124.523 23.9222C125.99 22.999 127.668 22.5366 129.555 22.5349C131.442 22.5333 133.121 22.9927 134.591 23.9133C136.062 24.8339 137.22 26.1437 138.065 27.8427C138.91 29.5417 139.334 31.558 139.337 33.8915ZM136.744 33.8938C136.742 31.978 136.419 30.3614 135.776 29.0439C135.14 27.7265 134.278 26.7297 133.19 26.0536C132.109 25.3776 130.898 25.0401 129.558 25.0413C128.219 25.0425 127.006 25.3821 125.919 26.06C124.84 26.738 123.981 27.7363 123.341 29.0548C122.709 30.3734 122.395 31.9906 122.398 33.9064C122.4 35.8222 122.719 37.4388 123.355 38.7563C123.998 40.0737 124.86 41.0705 125.941 41.7465C127.03 42.4226 128.244 42.76 129.583 42.7589C130.923 42.7577 132.133 42.4181 133.212 41.7402C134.299 41.0622 135.158 40.0639 135.79 38.7453C136.429 37.4268 136.747 35.8096 136.744 33.8938ZM141.699 25.2035L141.696 22.8267L158.29 22.8122L158.293 25.1889L151.336 25.195L151.364 44.9436L148.684 44.946L148.656 25.1974L141.699 25.2035ZM162.456 44.9338L162.425 22.8085L175.778 22.7968L175.781 25.1735L165.107 25.1829L165.118 32.6588L175.1 32.6501L175.104 35.0268L165.121 35.0356L165.132 42.5547L175.978 42.5452L175.982 44.922L162.456 44.9338ZM180.638 44.9179L180.607 22.7925L188.083 22.786C189.811 22.7844 191.231 23.0785 192.341 23.6681C193.45 24.2505 194.273 25.0528 194.807 26.0751C195.342 27.0973 195.61 28.2603 195.611 29.5639C195.613 30.8675 195.348 32.0237 194.817 33.0325C194.285 34.0412 193.469 34.8342 192.368 35.4114C191.267 35.9813 189.859 36.267 188.145 36.2685L182.095 36.2739L182.092 33.8539L188.055 33.8487C189.236 33.8476 190.187 33.6739 190.907 33.3276C191.633 32.9812 192.159 32.491 192.482 31.8569C192.812 31.2156 192.977 30.4521 192.975 29.5662C192.974 28.6803 192.807 27.9062 192.475 27.2439C192.143 26.5816 191.613 26.0707 190.885 25.7112C190.157 25.3445 189.195 25.1617 188 25.1628L183.289 25.1669L183.317 44.9155L180.638 44.9179ZM191.038 34.9696L196.497 44.9039L193.386 44.9066L188.014 34.9722L191.038 34.9696Z" fill="#70CBCB"/>
</svg>
