<svg width="60" height="60" viewBox="0 0 60 60" fill="none" xmlns="http://www.w3.org/2000/svg">
<path d="M13.75 55C12.75 55 11.875 54.625 11.125 53.875C10.375 53.125 10 52.25 10 51.25V18.75C10 17.75 10.375 16.875 11.125 16.125C11.875 15.375 12.75 15 13.75 15H20.625V14.375C20.625 11.75 21.5312 9.53125 23.3437 7.71875C25.1562 5.90625 27.375 5 30 5C32.625 5 34.8437 5.90625 36.6562 7.71875C38.4687 9.53125 39.375 11.75 39.375 14.375V15H46.25C47.25 15 48.125 15.375 48.875 16.125C49.625 16.875 50 17.75 50 18.75V51.25C50 52.25 49.625 53.125 48.875 53.875C48.125 54.625 47.25 55 46.25 55H13.75ZM24.375 14.375V15H35.625V14.375C35.625 12.7917 35.0833 11.4583 34 10.375C32.9167 9.29167 31.5833 8.75 30 8.75C28.4167 8.75 27.0833 9.29167 26 10.375C24.9167 11.4583 24.375 12.7917 24.375 14.375ZM13.75 51.25H46.25V18.75H39.375V24.375C39.375 24.9167 39.1979 25.3646 38.8437 25.7188C38.4896 26.0729 38.0417 26.25 37.5 26.25C36.9583 26.25 36.5104 26.0729 36.1562 25.7188C35.8021 25.3646 35.625 24.9167 35.625 24.375V18.75H24.375V24.375C24.375 24.9167 24.1979 25.3646 23.8437 25.7188C23.4896 26.0729 23.0417 26.25 22.5 26.25C21.9583 26.25 21.5104 26.0729 21.1562 25.7188C20.8021 25.3646 20.625 24.9167 20.625 24.375V18.75H13.75V51.25ZM13.75 51.25V18.75V51.25Z" fill="white"/>
</svg>
