<svg width="80" height="80" viewBox="0 0 80 80" fill="none" xmlns="http://www.w3.org/2000/svg">
<path d="M6.66675 66.6668V58.8335C6.66675 56.9446 7.13897 55.2085 8.08341 53.6252C9.02786 52.0418 10.4445 50.8335 12.3334 50.0002C16.3334 48.2224 20.0001 46.9446 23.3334 46.1668C26.6667 45.3891 30.0001 45.0002 33.3334 45.0002C34.9445 45.0002 36.6529 45.0974 38.4584 45.2918C40.264 45.4863 42.1112 45.8335 44.0001 46.3335L39.9168 50.4168C38.8056 50.3057 37.7084 50.2085 36.6251 50.1252C35.5417 50.0418 34.4445 50.0002 33.3334 50.0002C30.1112 50.0002 27.1806 50.2918 24.5417 50.8752C21.9029 51.4585 18.5001 52.6668 14.3334 54.5002C13.389 54.9446 12.7084 55.5835 12.2917 56.4168C11.8751 57.2502 11.6667 58.0557 11.6667 58.8335V61.6668H38.2501L43.2501 66.6668H6.66675ZM52.0834 68.0002L40.3334 56.2502L43.8334 52.7502L52.0834 61.0002L69.8334 43.2502L73.3334 46.7502L52.0834 68.0002ZM33.3334 39.8335C29.6667 39.8335 26.6667 38.6668 24.3334 36.3335C22.0001 34.0002 20.8334 31.0002 20.8334 27.3335C20.8334 23.6668 22.0001 20.6668 24.3334 18.3335C26.6667 16.0002 29.6667 14.8335 33.3334 14.8335C37.0001 14.8335 40.0001 16.0002 42.3334 18.3335C44.6667 20.6668 45.8334 23.6668 45.8334 27.3335C45.8334 31.0002 44.6667 34.0002 42.3334 36.3335C40.0001 38.6668 37.0001 39.8335 33.3334 39.8335ZM33.3334 34.8335C35.5001 34.8335 37.2917 34.1252 38.7084 32.7085C40.1251 31.2918 40.8334 29.5002 40.8334 27.3335C40.8334 25.1668 40.1251 23.3752 38.7084 21.9585C37.2917 20.5418 35.5001 19.8335 33.3334 19.8335C31.1667 19.8335 29.3751 20.5418 27.9584 21.9585C26.5417 23.3752 25.8334 25.1668 25.8334 27.3335C25.8334 29.5002 26.5417 31.2918 27.9584 32.7085C29.3751 34.1252 31.1667 34.8335 33.3334 34.8335Z" fill="black"/>
</svg>
