<svg width="80" height="80" viewBox="0 0 80 80" fill="none" xmlns="http://www.w3.org/2000/svg">
<path d="M25.3386 27.251H73.6255C77.1404 27.251 80 24.3914 80 20.8765C80 17.3616 77.1404 14.502 73.6255 14.502H25.3386C21.8237 14.502 18.9641 17.3616 18.9641 20.8765C18.9641 24.3914 21.8237 27.251 25.3386 27.251ZM25.3386 17.6892H73.6255C75.3829 17.6892 76.8127 19.119 76.8127 20.8765C76.8127 22.6339 75.3829 24.0637 73.6255 24.0637H25.3386C23.5812 24.0637 22.1514 22.6339 22.1514 20.8765C22.1514 19.119 23.5812 17.6892 25.3386 17.6892Z" fill="black"/>
<path d="M73.6255 33.6255H25.3386C21.8237 33.6255 18.9641 36.4851 18.9641 40C18.9641 43.5149 21.8237 46.3745 25.3386 46.3745H73.6255C77.1404 46.3745 80 43.5149 80 40C80 36.4851 77.1404 33.6255 73.6255 33.6255ZM73.6255 43.1872H25.3386C23.5812 43.1872 22.1514 41.7574 22.1514 40C22.1514 38.2425 23.5812 36.8127 25.3386 36.8127H73.6255C75.3829 36.8127 76.8127 38.2425 76.8127 40C76.8127 41.7574 75.3829 43.1872 73.6255 43.1872Z" fill="black"/>
<path d="M73.6255 52.749H25.3386C21.8237 52.749 18.9641 55.6086 18.9641 59.1235C18.9641 62.6384 21.8237 65.498 25.3386 65.498H73.6255C77.1404 65.498 80 62.6384 80 59.1235C80 55.6086 77.1404 52.749 73.6255 52.749ZM73.6255 62.3108H25.3386C23.5812 62.3108 22.1514 60.881 22.1514 59.1235C22.1514 57.3661 23.5812 55.9363 25.3386 55.9363H73.6255C75.3829 55.9363 76.8127 57.3661 76.8127 59.1235C76.8127 60.881 75.3829 62.3108 73.6255 62.3108Z" fill="black"/>
<path d="M7.80877 13.0679C3.50295 13.0679 0 16.5708 0 20.8766C0 25.1825 3.50295 28.6854 7.80877 28.6854C12.1146 28.6854 15.6175 25.1825 15.6175 20.8766C15.6175 16.5708 12.1146 13.0679 7.80877 13.0679ZM7.80877 25.4981C5.2604 25.4981 3.18725 23.425 3.18725 20.8766C3.18725 18.3283 5.2604 16.2551 7.80877 16.2551C10.3571 16.2551 12.4303 18.3283 12.4303 20.8766C12.4303 23.425 10.3571 25.4981 7.80877 25.4981Z" fill="black"/>
<path d="M7.80877 32.1914C3.50295 32.1914 0 35.6944 0 40.0002C0 44.306 3.50295 47.8089 7.80877 47.8089C12.1146 47.8089 15.6175 44.306 15.6175 40.0002C15.6175 35.6944 12.1146 32.1914 7.80877 32.1914ZM7.80877 44.6217C5.2604 44.6217 3.18725 42.5485 3.18725 40.0002C3.18725 37.4518 5.2604 35.3787 7.80877 35.3787C10.3571 35.3787 12.4303 37.4518 12.4303 40.0002C12.4303 42.5485 10.3571 44.6217 7.80877 44.6217Z" fill="black"/>
<path d="M7.80877 51.3149C3.50295 51.3149 0 54.8179 0 59.1237C0 63.4295 3.50295 66.9325 7.80877 66.9325C12.1146 66.9325 15.6175 63.4295 15.6175 59.1237C15.6175 54.8179 12.1146 51.3149 7.80877 51.3149ZM7.80877 63.7452C5.2604 63.7452 3.18725 61.6721 3.18725 59.1237C3.18725 56.5753 5.2604 54.5022 7.80877 54.5022C10.3571 54.5022 12.4303 56.5753 12.4303 59.1237C12.4303 61.6721 10.3571 63.7452 7.80877 63.7452Z" fill="black"/>
<path d="M34.4222 22.1516H61.6732C62.5534 22.1516 63.2669 21.4381 63.2669 20.558C63.2669 19.6778 62.5534 18.9644 61.6732 18.9644H34.4222C33.5421 18.9644 32.8286 19.6778 32.8286 20.558C32.8286 21.4381 33.5421 22.1516 34.4222 22.1516Z" fill="black"/>
<path d="M25.1793 22.1516H28.0478C28.928 22.1516 29.6415 21.4381 29.6415 20.558C29.6415 19.6778 28.928 18.9644 28.0478 18.9644H25.1793C24.2992 18.9644 23.5857 19.6778 23.5857 20.558C23.5857 21.4381 24.2992 22.1516 25.1793 22.1516Z" fill="black"/>
</svg>
