<svg width="80" height="80" viewBox="0 0 80 80" fill="none" xmlns="http://www.w3.org/2000/svg">
<path d="M70.3448 44.1088V18.6206V17.2413V2.06885H48.2759H45.5172H26.2069H23.4483H0V17.2413V18.6206V65.5171C0 66.2799 0.617931 66.8964 1.37931 66.8964H45.5214C48.229 73.3695 54.6248 77.9309 62.069 77.9309C71.9559 77.9309 80 69.8868 80 59.9999C80 53.0992 76.0745 47.1047 70.3448 44.1088ZM48.2759 4.82747H67.5862V15.862H48.2759V4.82747ZM26.2069 4.82747H45.5172V15.862H26.2069V4.82747ZM2.75862 4.82747H23.4483V15.862H2.75862V4.82747ZM44.6331 64.1378H2.75862V18.6206H23.4483H26.2069H45.5172H48.2759H67.5862V42.9461C67.3172 42.8592 67.04 42.7888 66.7655 42.7144C66.509 42.644 66.2524 42.5737 65.9945 42.5157C65.7614 42.4633 65.5269 42.4178 65.291 42.3751C64.9545 42.313 64.6166 42.262 64.2759 42.2192C64.0869 42.1957 63.8993 42.1695 63.709 42.1516C63.1655 42.102 62.6179 42.0688 62.0676 42.0688C57.2372 42.0688 52.8552 43.9971 49.629 47.1144C49.6772 46.6688 49.7338 46.2261 49.7338 45.7709V35.6399C49.7338 32.8233 48.7517 30.4357 46.7903 28.473C44.8276 26.5102 42.4469 25.5295 39.6455 25.5295C36.8441 25.5295 34.4634 26.5102 32.5021 28.473C30.5393 30.4357 29.5586 32.8151 29.5586 35.6164C29.5586 38.4178 30.5393 40.7985 32.5021 42.7613C34.4634 44.724 36.8924 45.7047 39.7876 45.7047C42.6828 45.7047 45.1269 44.6288 47.12 42.4757V45.4385C47.12 48.4137 46.2497 50.6675 44.509 52.2026C42.7683 53.7364 40.7117 54.5047 38.3379 54.5047H37.3172V57.1157H38.149C40.269 57.1157 42.12 56.7433 43.7021 55.9999C44.0717 55.8261 44.4165 55.6385 44.7434 55.4413C44.3628 56.9006 44.1379 58.422 44.1379 59.9999C44.1379 60.6799 44.1835 61.3475 44.2579 62.0082C44.2703 62.1116 44.291 62.2137 44.3048 62.3171C44.3821 62.9075 44.4855 63.4882 44.6179 64.0578C44.6248 64.084 44.6262 64.1116 44.6331 64.1378ZM47.1228 35.5695C47.1228 37.7061 46.4041 39.4937 44.9641 40.9337C43.5241 42.3737 41.76 43.0923 39.6717 43.0923C37.5821 43.0923 35.8097 42.3737 34.3559 40.9337C32.8993 39.4937 32.1724 37.7295 32.1724 35.6413C32.1724 33.5516 32.8993 31.7806 34.3559 30.3254C35.811 28.8702 37.5752 28.142 39.6483 28.142C41.7214 28.142 43.4855 28.8468 44.9407 30.2537C46.3959 31.662 47.1228 33.433 47.1228 35.5695ZM62.069 75.1723C55.4662 75.1723 49.8497 70.924 47.7697 65.0233C47.64 64.6551 47.5269 64.284 47.4262 63.9116C47.4055 63.8316 47.3848 63.753 47.3641 63.673C47.2814 63.3447 47.2097 63.0164 47.149 62.6854C47.1159 62.5019 47.091 62.3171 47.0648 62.1323C47.029 61.884 46.9903 61.6357 46.9669 61.3861C46.9255 60.9295 46.8966 60.4675 46.8966 59.9999C46.8966 51.6344 53.7034 44.8275 62.069 44.8275C62.6055 44.8275 63.1393 44.8564 63.669 44.9144C63.7545 44.924 63.8359 44.9433 63.9214 44.953C64.371 45.0095 64.8207 45.0757 65.2635 45.1723C65.3214 45.1847 65.3765 45.2026 65.4331 45.2164C65.9048 45.3254 66.3724 45.4509 66.8345 45.6054C66.869 45.6164 66.9007 45.6302 66.9352 45.6426C67.4083 45.8054 67.8772 45.9902 68.3393 46.1999C73.5821 48.5916 77.2414 53.8716 77.2414 59.9999C77.2414 68.3654 70.4345 75.1723 62.069 75.1723Z" fill="black"/>
<path d="M70.3449 58.6206H63.4483V51.724C63.4483 50.9613 62.8304 50.3447 62.069 50.3447C61.3076 50.3447 60.6897 50.9613 60.6897 51.724V58.6206H53.7931C53.0317 58.6206 52.4138 59.2371 52.4138 59.9999C52.4138 60.7627 53.0317 61.3792 53.7931 61.3792H60.6897V68.2758C60.6897 69.0385 61.3076 69.6551 62.069 69.6551C62.8304 69.6551 63.4483 69.0385 63.4483 68.2758V61.3792H70.3449C71.1062 61.3792 71.7242 60.7627 71.7242 59.9999C71.7242 59.2371 71.1062 58.6206 70.3449 58.6206Z" fill="black"/>
<path d="M15.1724 29.655V32.4136L22.1489 28.2757V57.3488H24.9075V25.5171H22.1489L15.1724 29.655Z" fill="black"/>
</svg>
