<svg width="80" height="80" viewBox="0 0 80 80" fill="none" xmlns="http://www.w3.org/2000/svg">
<g clip-path="url(#clip0_297_1683)">
<path d="M79.2615 36.2742L41.6141 2.60882C41.5483 2.543 41.4825 2.49364 41.4002 2.44428C40.5775 1.65447 39.2611 1.62156 38.3891 2.39492L0.74169 36.0603C-0.179749 36.8831 -0.245566 38.2817 0.560693 39.2031C1.00496 39.6967 1.61377 39.9436 2.22257 39.9436C2.74911 39.9436 3.27565 39.7626 3.70346 39.3841L10.4826 33.3125V34.4972V52.0703V72.5724C10.4826 75.6493 12.9837 78.1668 16.0771 78.1668C16.1264 78.1668 16.1593 78.1668 16.2087 78.1668C16.2581 78.1668 16.291 78.1668 16.3403 78.1668H27.9571C30.853 78.1668 33.206 75.8139 33.206 72.9179V52.9589C33.206 52.5146 33.568 52.1526 34.0122 52.1526H46.0074C46.4517 52.1526 46.8136 52.5146 46.8136 52.9589V72.9179C46.8136 75.8139 49.1666 78.1668 52.0626 78.1668H63.9425C67.0689 78.1668 69.537 75.0899 69.537 71.1573V52.8602V47.2657V33.5264L76.3162 39.598C76.744 39.9765 77.2705 40.1575 77.797 40.1575C78.4058 40.1575 79.0146 39.9106 79.4589 39.417C80.2487 38.4956 80.1665 37.097 79.2615 36.2742ZM65.0779 47.2492V52.8437V71.1244C65.0779 72.7205 64.2881 73.6913 63.9261 73.6913H52.0461C51.6018 73.6913 51.2398 73.3293 51.2398 72.885V52.9589C51.2398 50.0629 48.8869 47.71 45.9909 47.71H33.9958C31.0998 47.71 28.7469 50.0629 28.7469 52.9589V72.9179C28.7469 73.3622 28.3849 73.7242 27.9406 73.7242H16.3239C16.2745 73.7242 16.2416 73.7242 16.1922 73.7242C16.1429 73.7242 16.11 73.7242 16.0606 73.7242C15.4354 73.7242 14.9088 73.2141 14.9088 72.5724V52.0539V34.4807V29.3305L39.8864 7.01856L65.0779 29.5445V47.2492Z" fill="black"/>
</g>
<defs>
<clipPath id="clip0_297_1683">
<rect width="80" height="80" fill="white"/>
</clipPath>
</defs>
</svg>
