<svg width="80" height="80" viewBox="0 0 80 80" fill="none" xmlns="http://www.w3.org/2000/svg">
<path d="M28.8332 75L22.4999 64.1667L9.91658 61.5833L11.3333 49.3333L3.33325 40L11.3333 30.75L9.91658 18.5L22.4999 15.9167L28.8332 5L39.9999 10.1667L51.1666 5L57.5832 15.9167L70.0832 18.5L68.6666 30.75L76.6666 40L68.6666 49.3333L70.0832 61.5833L57.5832 64.1667L51.1666 75L39.9999 69.8333L28.8332 75ZM36.4166 51.0833L55.3332 32.3333L51.5832 28.9167L36.4166 43.9167L28.4999 35.6667L24.6666 39.4167L36.4166 51.0833ZM31.0832 68.4167L39.9999 64.6667L49.1666 68.4167L54.7499 60.0833L64.4999 57.5833L63.4999 47.6667L70.2499 40L63.4999 32.1667L64.4999 22.25L54.7499 19.9167L48.9999 11.5833L39.9999 15.3333L30.8333 11.5833L25.2499 19.9167L15.4999 22.25L16.4999 32.1667L9.74992 40L16.4999 47.6667L15.4999 57.75L25.2499 60.0833L31.0832 68.4167Z" fill="black"/>
</svg>
