<svg width="31" height="30" viewBox="0 0 31 30" fill="none" xmlns="http://www.w3.org/2000/svg">
<path d="M15.0115 20.6875C17.1781 18.9375 18.8136 17.2552 19.9177 15.6406C21.0219 14.026 21.574 12.5208 21.574 11.125C21.574 9.89583 21.35 8.85417 20.9021 8C20.4542 7.14583 19.9021 6.44792 19.2458 5.90625C18.5896 5.36458 17.8761 4.97396 17.1052 4.73438C16.3344 4.49479 15.6365 4.375 15.0115 4.375C14.3865 4.375 13.6886 4.49479 12.9177 4.73438C12.1469 4.97396 11.4333 5.36458 10.7771 5.90625C10.1208 6.44792 9.56877 7.14583 9.12085 8C8.67293 8.85417 8.44897 9.89583 8.44897 11.125C8.44897 12.5208 9.00106 14.026 10.1052 15.6406C11.2094 17.2552 12.8448 18.9375 15.0115 20.6875ZM15.0115 23.0625C12.1573 20.9167 10.0375 18.8646 8.6521 16.9062C7.26668 14.9479 6.57397 13.0208 6.57397 11.125C6.57397 9.70833 6.82918 8.46354 7.3396 7.39062C7.85002 6.31771 8.51147 5.41667 9.32397 4.6875C10.1365 3.95833 11.0427 3.41146 12.0427 3.04688C13.0427 2.68229 14.0323 2.5 15.0115 2.5C15.9906 2.5 16.9802 2.68229 17.9802 3.04688C18.9802 3.41146 19.8865 3.95833 20.699 4.6875C21.5115 5.41667 22.1729 6.31771 22.6833 7.39062C23.1938 8.46354 23.449 9.70833 23.449 11.125C23.449 13.0208 22.7563 14.9479 21.3708 16.9062C19.9854 18.8646 17.8656 20.9167 15.0115 23.0625ZM15.0115 13.125C15.6156 13.125 16.1313 12.9115 16.5583 12.4844C16.9854 12.0573 17.199 11.5417 17.199 10.9375C17.199 10.3333 16.9854 9.81771 16.5583 9.39062C16.1313 8.96354 15.6156 8.75 15.0115 8.75C14.4073 8.75 13.8917 8.96354 13.4646 9.39062C13.0375 9.81771 12.824 10.3333 12.824 10.9375C12.824 11.5417 13.0375 12.0573 13.4646 12.4844C13.8917 12.9115 14.4073 13.125 15.0115 13.125ZM6.57397 27.5V25.625H23.449V27.5H6.57397Z" fill="white"/>
</svg>
