<svg width="90" height="90" viewBox="0 0 90 90" fill="none" xmlns="http://www.w3.org/2000/svg">
<path d="M75.5254 39.397C75.5254 32.2531 71.2839 26.439 66.0712 26.439C60.8585 26.439 56.6169 32.2512 56.6169 39.397C56.6169 44.111 58.4566 48.3917 61.3926 50.6703L56.8653 55.573C56.7047 55.7448 56.6169 55.9708 56.6169 56.208V62.6291C56.6169 63.1408 57.0334 63.5629 57.5508 63.5629H74.5934C75.1014 63.5629 75.5272 63.1408 75.5272 62.6291V56.0922C75.5272 55.855 75.4301 55.6253 75.2695 55.4535L70.7721 50.6498C73.6895 48.3675 75.5254 44.0961 75.5254 39.397ZM68.671 51.1316L73.6596 56.462V61.6971H58.4846V56.5797L63.505 51.1484C63.6955 50.9467 63.7814 50.6554 63.7422 50.379C63.7011 50.1007 63.5311 49.856 63.2864 49.7141C60.3691 48.0107 58.4884 43.9635 58.4884 39.4082C58.4884 33.2934 61.8894 28.3179 66.0768 28.3179C70.2566 28.3179 73.6633 33.2934 73.6633 39.4082C73.6633 43.9485 71.7844 47.9883 68.8802 49.6991C68.6299 49.8429 68.4655 50.0895 68.4282 50.3677C68.389 50.6423 68.4767 50.9243 68.671 51.1316Z" fill="black"/>
<path d="M43.0763 26.4409H15.4085C14.893 26.4409 14.4746 26.8611 14.4746 27.3748C14.4746 27.8902 14.893 28.3086 15.4085 28.3086H43.0726C43.5881 28.3086 44.0064 27.8902 44.0064 27.3748C44.0064 26.8593 43.5899 26.4409 43.0763 26.4409Z" fill="black"/>
<path d="M43.0763 32.0439H15.4085C14.893 32.0439 14.4746 32.4642 14.4746 32.9778C14.4746 33.4933 14.893 33.9116 15.4085 33.9116H43.0726C43.5881 33.9116 44.0064 33.4933 44.0064 32.9778C44.0064 32.4623 43.5899 32.0439 43.0763 32.0439Z" fill="black"/>
<path d="M43.0763 37.647H15.4085C14.893 37.647 14.4746 38.0672 14.4746 38.5808C14.4746 39.0963 14.893 39.5147 15.4085 39.5147H43.0726C43.5881 39.5147 44.0064 39.0963 44.0064 38.5808C44.0064 38.0653 43.5899 37.647 43.0763 37.647Z" fill="black"/>
<path d="M43.0763 43.25H15.4085C14.893 43.25 14.4746 43.6702 14.4746 44.1838C14.4746 44.6993 14.893 45.1177 15.4085 45.1177H43.0726C43.5881 45.1177 44.0064 44.6993 44.0064 44.1838C44.0064 43.6684 43.5899 43.25 43.0763 43.25Z" fill="black"/>
<path d="M43.0763 48.853H15.4085C14.893 48.853 14.4746 49.2733 14.4746 49.7869C14.4746 50.3005 14.893 50.7207 15.4085 50.7207H43.0726C43.5881 50.7207 44.0064 50.3005 44.0064 49.7869C44.0064 49.2733 43.5899 48.853 43.0763 48.853Z" fill="black"/>
<path d="M43.0763 54.4561H15.4085C14.893 54.4561 14.4746 54.8763 14.4746 55.3899C14.4746 55.9035 14.893 56.3237 15.4085 56.3237H43.0726C43.5881 56.3237 44.0064 55.9035 44.0064 55.3899C44.0064 54.8763 43.5899 54.4561 43.0763 54.4561Z" fill="black"/>
<path d="M43.0763 60.0591H15.4085C14.893 60.0591 14.4746 60.4793 14.4746 60.9929C14.4746 61.5065 14.893 61.9268 15.4085 61.9268H43.0726C43.5881 61.9268 44.0064 61.5065 44.0064 60.9929C44.0064 60.4793 43.5899 60.0591 43.0763 60.0591Z" fill="black"/>
<path d="M85.3308 15.2349H4.66921C2.09554 15.2349 0 17.3304 0 19.9041V70.0981C0 72.6736 2.09554 74.7673 4.66921 74.7673H85.3308C87.9063 74.7673 90 72.6736 90 70.0981V19.9041C90 17.3304 87.9063 15.2349 85.3308 15.2349ZM88.1323 70.0981C88.1323 71.6446 86.8754 72.8996 85.3308 72.8996H4.66921C3.12464 72.8996 1.86768 71.6446 1.86768 70.0981V19.9041C1.86768 18.3595 3.12464 17.1025 4.66921 17.1025H85.3308C86.8754 17.1025 88.1323 18.3595 88.1323 19.9041V70.0981Z" fill="black"/>
</svg>
