<svg width="31" height="30" viewBox="0 0 31 30" fill="none" xmlns="http://www.w3.org/2000/svg">
<path d="M24.8552 26.25C22.3136 26.25 19.7875 25.625 17.2771 24.375C14.7667 23.125 12.5115 21.5 10.5115 19.5C8.51147 17.5 6.88647 15.2448 5.63647 12.7344C4.38647 10.224 3.76147 7.69792 3.76147 5.15625C3.76147 4.76042 3.89689 4.42708 4.16772 4.15625C4.43856 3.88542 4.77189 3.75 5.16772 3.75H9.54272C9.83439 3.75 10.0896 3.84896 10.3083 4.04687C10.5271 4.24479 10.6677 4.51042 10.7302 4.84375L11.574 8.78125C11.6156 9.07292 11.6104 9.33854 11.5583 9.57812C11.5063 9.81771 11.3969 10.0208 11.2302 10.1875L8.10522 13.3438C9.27189 15.2812 10.5792 16.9688 12.0271 18.4062C13.475 19.8438 15.1156 21.0625 16.949 22.0625L19.9177 19C20.1261 18.7708 20.3656 18.6094 20.6365 18.5156C20.9073 18.4219 21.1781 18.4062 21.449 18.4688L25.1677 19.2812C25.4802 19.3438 25.7406 19.5 25.949 19.75C26.1573 20 26.2615 20.2917 26.2615 20.625V24.8438C26.2615 25.2396 26.1261 25.5729 25.8552 25.8438C25.5844 26.1146 25.2511 26.25 24.8552 26.25ZM7.16772 11.625L9.69897 9.0625L8.98022 5.625H5.63647C5.63647 6.4375 5.76147 7.32812 6.01147 8.29688C6.26147 9.26562 6.64689 10.375 7.16772 11.625ZM24.3865 24.375V21.0312L21.1677 20.375L18.699 22.9688C19.5531 23.3646 20.4802 23.6875 21.4802 23.9375C22.4802 24.1875 23.449 24.3333 24.3865 24.375Z" fill="white"/>
</svg>
